<?xml version="1.0" standalone="no"?>
<!DOCTYPE svg PUBLIC "-//W3C//DTD SVG 20010904//EN"
 "http://www.w3.org/TR/2001/REC-SVG-20010904/DTD/svg10.dtd">
<svg version="1.0" xmlns="http://www.w3.org/2000/svg"
 width="500.000000pt" height="500.000000pt" viewBox="0 0 500.000000 500.000000"
 preserveAspectRatio="xMidYMid meet">
<metadata>
Created by potrace 1.11, written by Peter Selinger 2001-2013
</metadata>
<g transform="translate(0.000000,500.000000) scale(0.100000,-0.100000)"
fill="#000000" stroke="none">
<path d="M2500 4500 l0 -259 33 -5 c17 -3 64 -8 102 -11 331 -30 656 -158 923
-364 389 -301 619 -733 671 -1264 16 -158 -15 -398 -76 -590 -181 -571 -589
-979 -1160 -1160 -192 -61 -432 -92 -590 -76 -531 52 -963 282 -1264 671 -214
277 -331 582 -368 960 -16 159 15 399 76 591 83 263 189 447 394 689 l32 37
-186 185 -185 186 -71 -80 c-313 -355 -515 -797 -561 -1230 -6 -58 -15 -129
-21 -159 -12 -69 -12 -173 0 -242 6 -30 15 -101 21 -159 51 -474 286 -956 640
-1310 354 -354 836 -589 1310 -640 58 -6 129 -15 159 -21 30 -5 84 -9 121 -9
37 0 91 4 121 9 30 6 101 15 159 21 474 51 956 286 1310 640 354 354 589 836
640 1310 6 58 15 129 21 159 5 30 9 84 9 121 0 37 -4 91 -9 121 -6 30 -15 101
-21 159 -51 474 -286 956 -640 1310 -354 354 -836 589 -1310 640 -58 6 -129
15 -159 21 -30 5 -69 9 -88 9 l-33 0 0 -260z"/>
</g>
</svg>
